<svg width="107" height="33" viewBox="0 0 107 33" fill="none" xmlns="http://www.w3.org/2000/svg">
<path d="M7.59595 21.9259C7.27024 21.6532 6.90406 21.4329 6.51056 21.2729C6.17671 21.137 5.82028 21.0652 5.45987 21.0611C5.03046 21.0611 4.68023 21.1629 4.40918 21.3663C4.28048 21.4558 4.17592 21.5757 4.10483 21.7154C4.03373 21.8551 3.99831 22.0103 4.00171 22.167C3.9944 22.3729 4.06746 22.5736 4.20544 22.7266C4.35839 22.8856 4.53935 23.0149 4.73924 23.1083C4.97939 23.2231 5.22916 23.3165 5.48567 23.3876C5.76265 23.4671 6.03667 23.5519 6.30772 23.6421C7.39192 24.0039 8.1858 24.4869 8.68935 25.0913C9.1929 25.6957 9.44408 26.4839 9.44289 27.456C9.45191 28.0652 9.33971 28.67 9.11283 29.2354C8.89824 29.7563 8.56782 30.2215 8.14665 30.5957C7.69144 30.9925 7.1602 31.2925 6.58529 31.4773C5.90932 31.6955 5.20214 31.8013 4.49191 31.7905C2.8751 31.7905 1.37779 31.3104 0 30.3501L1.42524 27.6687C1.86402 28.0684 2.36149 28.3984 2.90031 28.6473C3.35283 28.8545 3.84387 28.9643 4.34156 28.9694C4.88307 28.9694 5.28698 28.8448 5.55328 28.5957C5.74135 28.4332 5.87182 28.2142 5.92522 27.9715C5.97861 27.7287 5.95206 27.4752 5.84954 27.2488C5.76873 27.0965 5.65247 26.9659 5.51058 26.868C5.31848 26.7307 5.10908 26.6194 4.88781 26.537C4.63337 26.4356 4.32525 26.3226 3.96345 26.1981C3.53404 26.0622 3.11323 25.914 2.70102 25.7532C2.30204 25.5946 1.93132 25.3726 1.60317 25.0958C1.27275 24.8138 1.00694 24.4639 0.823829 24.07C0.626324 23.6548 0.527571 23.132 0.527571 22.5015C0.519391 21.9131 0.625754 21.3287 0.840733 20.7809C1.03885 20.2834 1.33921 19.833 1.72239 19.4589C2.12181 19.0792 2.59644 18.7877 3.1156 18.603C3.70556 18.3927 4.32829 18.2894 4.95454 18.2978C5.62436 18.3043 6.29077 18.394 6.93849 18.5647C7.62822 18.7409 8.29408 18.9999 8.92155 19.3361L7.59595 21.9259Z" fill="#07AAE9"/>
<path d="M16.5495 18.6537V25.6037C16.5495 25.9768 16.5635 26.3582 16.5914 26.7479C16.6138 27.1132 16.6999 27.4718 16.8458 27.8074C16.988 28.1251 17.2211 28.3935 17.5157 28.5788C17.8212 28.7763 18.2506 28.875 18.8039 28.875C19.3573 28.875 19.7838 28.7763 20.0833 28.5788C20.3752 28.3904 20.6075 28.1229 20.7532 27.8074C20.9042 27.4731 20.9931 27.114 21.0157 26.7479C21.0441 26.3582 21.0584 25.9768 21.0584 25.6037V18.6537H24.3635V26.061C24.3635 28.0503 23.9085 29.5034 22.9987 30.4204C22.0889 31.3373 20.6894 31.794 18.8004 31.7905C16.9125 31.7905 15.511 31.3329 14.5958 30.4177C13.6807 29.5025 13.2231 28.0494 13.2231 26.0584V18.6537H16.5495Z" fill="#07AAE9"/>
<path d="M39.3614 31.4343H35.2253L32.0555 26.5189V31.4343H28.7379V18.6533H33.9078C34.5447 18.6399 35.1785 18.7465 35.776 18.9674C36.258 19.1448 36.6952 19.4256 37.0569 19.7902C37.4186 20.1548 37.6959 20.5943 37.8694 21.0777C38.0467 21.5667 38.1355 22.0833 38.1319 22.6035C38.1319 23.575 37.8973 24.3632 37.4282 24.9682C36.959 25.5732 36.2668 25.9827 35.3517 26.1968L39.3614 31.4343ZM32.0555 24.3659H32.6782C33.3307 24.3659 33.8348 24.2304 34.1907 23.9593C34.5465 23.6883 34.7215 23.2983 34.7156 22.7894C34.7156 22.2811 34.5406 21.8914 34.1907 21.6204C33.8407 21.3493 33.3366 21.2135 32.6782 21.2129H32.0555V24.3659Z" fill="#07AAE9"/>
<path d="M48.4971 24.2814H55.0913C55.0926 24.8985 55.0629 25.5152 55.0024 26.1293C54.9526 26.6538 54.8403 27.1705 54.6679 27.6684C54.4459 28.3106 54.1195 28.9118 53.7017 29.4477C53.3012 29.9557 52.8167 30.3914 52.2693 30.736C51.7091 31.0851 51.101 31.3506 50.4642 31.5242C49.7899 31.7059 49.0941 31.7957 48.3957 31.7911C47.4658 31.8029 46.5422 31.6362 45.6751 31.3C44.8835 30.9908 44.1649 30.5203 43.5648 29.9184C42.9659 29.3081 42.4986 28.5814 42.1921 27.7832C41.8546 26.9034 41.6877 25.9674 41.7001 25.0252C41.6895 24.0906 41.8533 23.1622 42.1832 22.2877C42.485 21.4894 42.9529 20.7644 43.5559 20.1605C44.1691 19.5604 44.8992 19.0931 45.7009 18.7878C46.5938 18.4494 47.5424 18.2825 48.4971 18.2958C49.831 18.2958 51.0007 18.584 52.006 19.1605C53.0113 19.737 53.8081 20.6297 54.3965 21.8384L51.2462 23.1453C50.9496 22.4449 50.5683 21.9407 50.1021 21.6329C49.6252 21.3254 49.068 21.166 48.5007 21.1747C48.0337 21.1684 47.571 21.264 47.1449 21.455C46.7417 21.6383 46.3852 21.9106 46.1022 22.2512C45.8009 22.6208 45.5711 23.0431 45.4242 23.4968C45.2543 24.0222 45.1714 24.5718 45.1787 25.124C45.1736 25.6358 45.2449 26.1456 45.3904 26.6364C45.5192 27.0764 45.7356 27.4858 46.0265 27.8401C46.311 28.1806 46.6707 28.4505 47.0772 28.6283C47.5381 28.8234 48.0351 28.9186 48.5354 28.9077C48.855 28.9086 49.1736 28.8719 49.4847 28.7983C49.7778 28.7298 50.0562 28.6093 50.3067 28.4424C50.5511 28.277 50.7563 28.0602 50.9081 27.8072C51.0773 27.5152 51.1868 27.1925 51.2302 26.8579H48.4971V24.2814Z" fill="#07AAE9"/>
<path d="M71.6037 18.6537V28.6179H75.5867V31.431H68.2808V18.6537H71.6037Z" fill="#07AAE9"/>
<path d="M82.3161 18.6537V31.4346H78.9941V18.6537H82.3161Z" fill="#07AAE9"/>
<path d="M93.7067 21.9258C93.3812 21.6532 93.0154 21.4329 92.6222 21.2728C92.2883 21.1371 91.9319 21.0652 91.5715 21.0611C91.1421 21.0611 90.7916 21.1628 90.5199 21.3662C90.3914 21.4559 90.2871 21.5759 90.2162 21.7156C90.1452 21.8553 90.1099 22.0103 90.1133 22.1669C90.1056 22.3729 90.1787 22.5738 90.3171 22.7265C90.4697 22.8859 90.6507 23.0153 90.8509 23.1082C91.0908 23.2229 91.3402 23.3163 91.5964 23.3876C91.8731 23.4667 92.148 23.5513 92.4185 23.642C93.5038 24.0038 94.2977 24.4869 94.8001 25.0913C95.3025 25.6956 95.5539 26.4839 95.5545 27.456C95.5631 28.0651 95.4509 28.6698 95.2245 29.2353C95.0104 29.7578 94.68 30.2246 94.2583 30.6001C93.8034 30.9964 93.2728 31.2963 92.6987 31.4817C92.0227 31.6999 91.3155 31.8057 90.6053 31.7949C88.9891 31.7949 87.4918 31.3148 86.1134 30.3545L87.5369 27.6766C87.9755 28.0765 88.473 28.4066 89.0119 28.6553C89.4642 28.8624 89.9549 28.9721 90.4523 28.9773C90.995 28.9773 91.3992 28.8528 91.6649 28.6037C91.7877 28.4989 91.8866 28.3692 91.9552 28.2231C92.0238 28.0771 92.0604 27.918 92.0626 27.7567C92.0667 27.5845 92.0321 27.4136 91.9612 27.2567C91.8815 27.1012 91.7652 26.9674 91.6222 26.867C91.4314 26.7303 91.2235 26.619 91.0039 26.5361C90.7494 26.4347 90.4413 26.3217 90.0795 26.1971C89.6495 26.0613 89.2287 25.913 88.8171 25.7523C88.4169 25.5958 88.0447 25.3755 87.7148 25.1002C87.3844 24.8182 87.1186 24.4683 86.9355 24.0744C86.7368 23.6592 86.6377 23.1364 86.6383 22.5059C86.6304 21.9174 86.7371 21.333 86.9524 20.7853C87.1505 20.2878 87.4508 19.8374 87.834 19.4632C88.2324 19.0841 88.7058 18.7925 89.2237 18.6074C89.8136 18.3971 90.4364 18.2938 91.0626 18.3022C91.7321 18.3088 92.3982 18.3984 93.0457 18.5691C93.7357 18.7451 94.4019 19.0041 95.0296 19.3405L93.7067 21.9258Z" fill="#07AAE9"/>
<path d="M104.27 21.4677V31.4319H100.948V21.4677H98.2189V18.6537H107V21.4677H104.27Z" fill="#07AAE9"/>
<path fill-rule="evenodd" clip-rule="evenodd" d="M64.3609 30.4185L59.2614 11.393L59.2765 11.3779C59.3224 11.3295 59.3473 11.265 59.3458 11.1983C59.3443 11.1317 59.3165 11.0683 59.2685 11.022C59.2447 10.9974 59.2161 10.9778 59.1846 10.9643C59.153 10.9509 59.1191 10.944 59.0848 10.944C59.0505 10.944 59.0165 10.9509 58.985 10.9643C58.9534 10.9778 58.9249 10.9974 58.9011 11.022L58.8121 11.1164C57.8157 7.41061 56.8207 3.70515 55.8273 0C54.2935 0.958168 54.2534 1.89321 54.4367 2.81223C54.8442 4.32466 55.2428 5.83709 55.6502 7.34952C55.8895 7.50965 56.1137 7.6689 56.3531 7.82904C56.6644 9.0034 56.9838 10.1858 57.2952 11.361C57.1911 11.6564 57.071 11.9517 56.9589 12.2391C57.015 12.4437 57.0683 12.6448 57.1217 12.8459L56.6315 13.3503C56.5856 13.3987 56.5607 13.4632 56.5622 13.5299C56.5637 13.5965 56.5915 13.6599 56.6395 13.7062C56.6839 13.7507 56.7435 13.7766 56.8063 13.7788C56.8691 13.7809 56.9303 13.7591 56.9776 13.7177L61.6359 31.14C61.7352 31.498 61.9718 31.8022 62.2942 31.9868C62.6165 32.1713 62.9987 32.2212 63.3576 32.1255C63.7166 32.0299 64.0233 31.7965 64.2112 31.4761C64.399 31.1556 64.4528 30.774 64.3609 30.4141V30.4185Z" fill="#07AAE9"/>
</svg>
