<svg width="101" height="100" viewBox="0 0 101 100" fill="none" xmlns="http://www.w3.org/2000/svg">
<path d="M10.5 49.257C10.5 59.8657 14.7143 70.0398 22.2157 77.5413C29.7172 85.0427 39.8913 89.257 50.5 89.257C61.1087 89.257 71.2828 85.0427 78.7843 77.5413C86.2857 70.0398 90.5 59.8657 90.5 49.257C90.5 38.6484 86.2857 28.4742 78.7843 20.9727C71.2828 13.4713 61.1087 9.25702 50.5 9.25702C39.8913 9.25702 29.7172 13.4713 22.2157 20.9727C14.7143 28.4742 10.5 38.6484 10.5 49.257Z" fill="#6ACEFF"/>
<path d="M78.1631 70.475H44.9241C43.3241 70.475 42.0341 71.191 42.0341 72.075C42.0341 72.959 43.3281 73.675 44.9241 73.675H46.3691C47.9691 73.675 49.2601 74.391 49.2601 75.275C49.2601 76.159 47.9661 76.875 46.3691 76.875H40.5891C37.3961 76.875 34.8081 78.308 34.8081 80.075C34.8081 81.842 37.3961 83.275 40.5891 83.275H43.9101C46.2191 83.275 47.8531 84.732 47.8151 86.437V86.475C47.8151 88.831 52.6671 90.742 58.6531 90.742C64.6391 90.742 69.4921 88.831 69.4921 86.475C69.4859 86.0799 69.3593 85.6961 69.1291 85.375C68.4731 84.406 69.4701 83.275 70.9371 83.275C74.1301 83.275 76.7181 81.842 76.7181 80.075C76.7181 78.308 74.1301 76.875 70.9371 76.875H69.4921C68.2921 76.875 67.3241 76.397 67.3241 75.808C67.3241 75.219 68.2951 74.742 69.4921 74.742H78.1631C80.5571 74.742 82.4981 73.786 82.4981 72.608C82.4981 71.43 80.5571 70.475 78.1631 70.475Z" fill="#35BCFF" stroke="black" stroke-linecap="round" stroke-linejoin="round"/>
<path d="M71.5532 33.515L70.5872 29.649C70.522 29.3917 70.3728 29.1634 70.1632 29.0004C69.9537 28.8374 69.6957 28.7489 69.4302 28.749H59.3692C59.1038 28.7488 58.8459 28.8372 58.6365 29.0003C58.427 29.1633 58.2781 29.3916 58.2132 29.649L57.2462 33.515H26.2462C25.93 33.515 25.6267 33.6406 25.403 33.8641C25.1793 34.0876 25.0535 34.3908 25.0532 34.707V69.282C25.0532 69.5952 25.1149 69.9054 25.2348 70.1947C25.3546 70.4841 25.5303 70.747 25.7518 70.9685C25.9732 71.1899 26.2362 71.3656 26.5255 71.4855C26.8149 71.6053 27.125 71.667 27.4382 71.667H72.7452C73.3778 71.667 73.9844 71.4157 74.4317 70.9685C74.8789 70.5212 75.1302 69.9146 75.1302 69.282V34.707C75.1302 34.3909 75.0046 34.0877 74.7811 33.8642C74.5575 33.6406 74.2544 33.515 73.9382 33.515H71.5532Z" fill="#35BCFF" stroke="black" stroke-linecap="round" stroke-linejoin="round"/>
<path d="M73.1101 71.667H27.0751C26.5106 71.6668 25.9644 71.4665 25.5338 71.1016C25.1031 70.7366 24.8158 70.2308 24.7231 69.674L20.5231 44.441C20.4946 44.2702 20.5037 44.0953 20.5497 43.9283C20.5957 43.7614 20.6775 43.6065 20.7894 43.4744C20.9013 43.3423 21.0407 43.2362 21.1978 43.1634C21.3549 43.0906 21.5259 43.0529 21.6991 43.053H78.4991C78.6722 43.0529 78.8433 43.0906 79.0004 43.1634C79.1575 43.2362 79.2968 43.3423 79.4087 43.4744C79.5207 43.6065 79.6025 43.7614 79.6485 43.9283C79.6945 44.0953 79.7035 44.2702 79.6751 44.441L75.4621 69.674C75.3693 70.2308 75.082 70.7366 74.6514 71.1016C74.2207 71.4665 73.6745 71.6668 73.1101 71.667Z" fill="white"/>
<path d="M73.1101 71.667H27.0751C26.5106 71.6668 25.9644 71.4665 25.5338 71.1016C25.1031 70.7366 24.8158 70.2308 24.7231 69.674L20.5231 44.441C20.4946 44.2702 20.5037 44.0953 20.5497 43.9283C20.5957 43.7614 20.6775 43.6065 20.7894 43.4744C20.9013 43.3423 21.0407 43.2362 21.1978 43.1634C21.3549 43.0906 21.5259 43.0529 21.6991 43.053H78.4991C78.6722 43.0529 78.8433 43.0906 79.0004 43.1634C79.1575 43.2362 79.2968 43.3423 79.4087 43.4744C79.5207 43.6065 79.6025 43.7614 79.6485 43.9283C79.6945 44.0953 79.7035 44.2702 79.6751 44.441L75.4621 69.674C75.3693 70.2308 75.082 70.7366 74.6514 71.1016C74.2207 71.4665 73.6745 71.6668 73.1101 71.667Z" stroke="black" stroke-linecap="round" stroke-linejoin="round"/>
<path d="M67.7618 12.054H39.1478L30.7998 20.4V43.053H68.9538V13.246C68.9538 12.9299 68.8282 12.6267 68.6047 12.4031C68.3811 12.1796 68.0779 12.054 67.7618 12.054Z" fill="white"/>
<path d="M67.7618 12.054H39.1478L30.7998 20.4V43.053H68.9538V13.246C68.9538 12.9299 68.8282 12.6267 68.6047 12.4031C68.3811 12.1796 68.0779 12.054 67.7618 12.054Z" stroke="black" stroke-linecap="round" stroke-linejoin="round"/>
<path d="M30.7998 20.4L39.1458 12.054V19.208C39.1455 19.5239 39.02 19.8268 38.7967 20.0502C38.5735 20.2737 38.2707 20.3995 37.9548 20.4H30.7998Z" fill="#35BCFF" stroke="black" stroke-linecap="round" stroke-linejoin="round"/>
<path d="M41.9619 65.706C41.9619 65.706 43.1539 62.129 50.3079 62.129C57.4619 62.129 58.6529 65.706 58.6529 65.706" stroke="black" stroke-linecap="round" stroke-linejoin="round"/>
<path d="M37.1929 54.379C37.1929 54.8532 37.3812 55.308 37.7166 55.6433C38.0519 55.9786 38.5067 56.167 38.9809 56.167C39.4551 56.167 39.9099 55.9786 40.2452 55.6433C40.5805 55.308 40.7689 54.8532 40.7689 54.379C40.7689 53.9048 40.5805 53.45 40.2452 53.1147C39.9099 52.7794 39.4551 52.591 38.9809 52.591C38.5067 52.591 38.0519 52.7794 37.7166 53.1147C37.3812 53.45 37.1929 53.9048 37.1929 54.379Z" fill="white" stroke="black"/>
<path d="M59.8462 54.379C59.8462 54.8532 60.0346 55.308 60.3699 55.6433C60.7052 55.9786 61.16 56.167 61.6342 56.167C62.1084 56.167 62.5632 55.9786 62.8985 55.6433C63.2338 55.308 63.4222 54.8532 63.4222 54.379C63.4222 53.9048 63.2338 53.45 62.8985 53.1147C62.5632 52.7794 62.1084 52.591 61.6342 52.591C61.16 52.591 60.7052 52.7794 60.3699 53.1147C60.0346 53.45 59.8462 53.9048 59.8462 54.379Z" fill="white" stroke="black"/>
<path d="M67.0001 66C66.9858 66.781 66.6655 67.5252 66.1081 68.0725C65.5507 68.6198 64.8007 68.9264 64.0196 68.9264C63.2384 68.9264 62.4885 68.6198 61.9311 68.0725C61.3737 67.5252 61.0534 66.781 61.0391 66C61.0391 64.353 64.0191 58.548 64.0191 58.548C64.0191 58.548 67.0001 64.357 67.0001 66Z" fill="#35BCFF" stroke="black" stroke-linecap="round" stroke-linejoin="round"/>
<path d="M54.9409 35.9C54.649 35.9012 54.3597 35.8442 54.09 35.7324C53.8203 35.6207 53.5755 35.4563 53.3699 35.249L50.6059 32.484L47.8409 35.249C47.6358 35.4606 47.3905 35.6292 47.1196 35.7451C46.8486 35.8609 46.5573 35.9217 46.2626 35.9239C45.9678 35.9262 45.6756 35.8697 45.403 35.7579C45.1303 35.6461 44.8826 35.4812 44.6742 35.2727C44.4659 35.0642 44.3011 34.8164 44.1895 34.5437C44.0779 34.2709 44.0216 33.9787 44.024 33.684C44.0264 33.3893 44.0874 33.098 44.2034 32.8271C44.3195 32.5562 44.4883 32.3111 44.6999 32.106L47.4649 29.342L44.6999 26.578C44.4936 26.3717 44.3299 26.1268 44.2181 25.8572C44.1064 25.5876 44.0489 25.2987 44.0489 25.0069C44.0488 24.7151 44.1062 24.4261 44.2179 24.1565C44.3295 23.8869 44.4931 23.6419 44.6994 23.4355C44.9058 23.2291 45.1507 23.0654 45.4203 22.9537C45.6898 22.842 45.9788 22.7845 46.2706 22.7844C46.8599 22.7843 47.4252 23.0184 47.8419 23.435L50.6059 26.2L53.3699 23.436C53.5763 23.2297 53.8213 23.0661 54.0909 22.9544C54.3605 22.8428 54.6495 22.7854 54.9413 22.7854C55.2331 22.7855 55.522 22.843 55.7916 22.9547C56.0612 23.0664 56.3061 23.2301 56.5124 23.4365C56.7188 23.6429 56.8824 23.8879 56.994 24.1575C57.1056 24.4271 57.1631 24.7161 57.163 25.0079C57.163 25.2997 57.1055 25.5886 56.9937 25.8582C56.882 26.1278 56.7183 26.3727 56.5119 26.579L53.7469 29.343L56.5119 32.107C56.8226 32.4178 57.0342 32.8136 57.1199 33.2446C57.2056 33.6756 57.1616 34.1223 56.9934 34.5283C56.8253 34.9342 56.5406 35.2812 56.1752 35.5254C55.8099 35.7696 55.3804 35.8999 54.9409 35.9Z" fill="#35BCFF" stroke="black" stroke-linecap="round" stroke-linejoin="round"/>
</svg>
