<svg width="100" height="100" viewBox="0 0 100 100" fill="none" xmlns="http://www.w3.org/2000/svg">
<path d="M10 53.625C10 64.2337 14.2143 74.4078 21.7157 81.9093C29.2172 89.4107 39.3913 93.625 50 93.625C60.6087 93.625 70.7828 89.4107 78.2843 81.9093C85.7857 74.4078 90 64.2337 90 53.625C90 43.0163 85.7857 32.8422 78.2843 25.3407C70.7828 17.8393 60.6087 13.625 50 13.625C39.3913 13.625 29.2172 17.8393 21.7157 25.3407C14.2143 32.8422 10 43.0163 10 53.625Z" fill="#6ACEFF"/>
<path d="M31.2551 88.962L69.4191 88.6C71.2811 87.5617 73.0574 86.3766 74.7311 85.056L62.5391 51.61C62.3743 51.1271 62.0891 50.6943 61.7104 50.3524C61.3317 50.0105 60.8721 49.7708 60.3751 49.656L51.9231 47.706C51.539 47.6171 51.1412 47.6047 50.7523 47.6696C50.3635 47.7346 49.9913 47.8755 49.6569 48.0844C49.3226 48.2932 49.0327 48.5659 48.8038 48.8869C48.575 49.2079 48.4116 49.5708 48.3231 49.955L43.5371 70.706C43.3846 71.3672 43.0124 71.9573 42.4814 72.3797C41.9503 72.8022 41.2917 73.0321 40.6131 73.032H36.5781C36.0915 73.0319 35.6122 73.1503 35.1815 73.3767C34.7509 73.6032 34.3818 73.931 34.1061 74.332L26.2271 85.792C27.8221 86.9719 29.5028 88.0315 31.2551 88.962Z" fill="#35BCFF"/>
<path d="M49.0998 77.043C49.0708 77.1876 48.9998 77.3204 48.8955 77.4247C48.7912 77.529 48.6584 77.6001 48.5138 77.629C48.3403 77.6642 48.185 77.7599 48.0755 77.899C47.9661 78.0381 47.9095 78.2115 47.916 78.3884C47.9225 78.5653 47.9916 78.7341 48.1109 78.8648C48.2303 78.9955 48.3922 79.0795 48.5678 79.102L51.0678 79.415C51.32 79.4467 51.5749 79.3811 51.7806 79.2316C51.9862 79.082 52.1272 78.8598 52.1748 78.61L55.9498 58.788C56.0018 58.516 55.8758 57.388 54.9238 57.344C54.7217 57.3351 54.5217 57.3876 54.3501 57.4948C54.1785 57.6019 54.0435 57.7585 53.9628 57.944L52.0398 62.431C52.0122 62.4953 51.9918 62.5623 51.9788 62.631L49.0998 77.043Z" fill="white"/>
<path d="M71.6001 60.447C71.598 60.0567 71.6916 59.6718 71.8728 59.3261C72.054 58.9804 72.3172 58.6843 72.6393 58.4639C72.9615 58.2436 73.3327 58.1055 73.7206 58.0619C74.1085 58.0184 74.5011 58.0706 74.8641 58.214C75.0111 57.2757 75.4885 56.4207 76.2102 55.8033C76.9319 55.1859 77.8504 54.8466 78.8001 54.8466C79.7499 54.8466 80.6684 55.1859 81.3901 55.8033C82.1118 56.4207 82.5891 57.2757 82.7361 58.214C83.0653 58.0844 83.419 58.0291 83.772 58.0521C84.125 58.0752 84.4686 58.176 84.7781 58.3473C85.0875 58.5187 85.3553 58.7563 85.5622 59.0432C85.7692 59.3302 85.9101 59.6593 85.9749 60.007C86.0398 60.3548 86.027 60.7126 85.9374 61.0548C85.8478 61.397 85.6837 61.7152 85.4567 61.9866C85.2298 62.258 84.9457 62.4758 84.6247 62.6246C84.3038 62.7733 83.9539 62.8493 83.6001 62.847H74.0001C73.3636 62.847 72.7532 62.5941 72.3031 62.144C71.853 61.694 71.6001 61.0835 71.6001 60.447Z" fill="white" stroke="black" stroke-linecap="round" stroke-linejoin="round"/>
<path d="M71.6001 60.447C71.598 60.0567 71.6916 59.6718 71.8728 59.3261C72.054 58.9804 72.3172 58.6843 72.6393 58.4639C72.9615 58.2436 73.3327 58.1055 73.7206 58.0619C74.1085 58.0184 74.5011 58.0706 74.8641 58.214C75.0111 57.2757 75.4885 56.4207 76.2102 55.8033C76.9319 55.1859 77.8504 54.8466 78.8001 54.8466C79.7499 54.8466 80.6684 55.1859 81.3901 55.8033C82.1118 56.4207 82.5891 57.2757 82.7361 58.214C83.0653 58.0844 83.419 58.0291 83.772 58.0521C84.125 58.0752 84.4686 58.176 84.7781 58.3473C85.0875 58.5187 85.3553 58.7563 85.5622 59.0432C85.7692 59.3302 85.9101 59.6593 85.9749 60.007C86.0398 60.3548 86.027 60.7126 85.9374 61.0548C85.8478 61.397 85.6837 61.7152 85.4567 61.9866C85.2298 62.258 84.9457 62.4758 84.6247 62.6246C84.3038 62.7733 83.9539 62.8493 83.6001 62.847H74.0001C73.3636 62.847 72.7532 62.5941 72.3031 62.144C71.853 61.694 71.6001 61.0835 71.6001 60.447Z" fill="white" stroke="black" stroke-linecap="round" stroke-linejoin="round"/>
<path d="M21.6668 48.714C22.0435 48.7165 22.4164 48.7887 22.7668 48.927C22.9542 47.7278 23.5639 46.635 24.486 45.8457C25.4082 45.0564 26.582 44.6227 27.7958 44.6227C29.0096 44.6227 30.1834 45.0564 31.1056 45.8457C32.0277 46.635 32.6375 47.7278 32.8248 48.927C33.2448 48.7638 33.6957 48.6953 34.1452 48.7263C34.5947 48.7573 35.0319 48.8871 35.4255 49.1063C35.8192 49.3256 36.1596 49.629 36.4226 49.995C36.6855 50.3609 36.8646 50.7803 36.9469 51.2233C37.0292 51.6663 37.0128 52.122 36.8988 52.558C36.7849 52.9939 36.5761 53.3994 36.2875 53.7454C35.9989 54.0915 35.6376 54.3696 35.2292 54.56C34.8208 54.7505 34.3754 54.8484 33.9248 54.847H21.6668C21.2595 54.8544 20.8547 54.7805 20.4762 54.6297C20.0977 54.4789 19.7531 54.2542 19.4624 53.9687C19.1717 53.6832 18.9408 53.3427 18.7832 52.967C18.6256 52.5913 18.5444 52.1879 18.5444 51.7805C18.5444 51.3731 18.6256 50.9698 18.7832 50.5941C18.9408 50.2184 19.1717 49.8778 19.4624 49.5923C19.7531 49.3069 20.0977 49.0822 20.4762 48.9314C20.8547 48.7805 21.2595 48.7067 21.6668 48.714Z" fill="white" stroke="black" stroke-linecap="round" stroke-linejoin="round"/>
<path d="M21.6668 48.714C22.0435 48.7165 22.4164 48.7887 22.7668 48.927C22.9542 47.7278 23.5639 46.635 24.486 45.8457C25.4082 45.0564 26.582 44.6227 27.7958 44.6227C29.0096 44.6227 30.1834 45.0564 31.1056 45.8457C32.0277 46.635 32.6375 47.7278 32.8248 48.927C33.2448 48.7638 33.6957 48.6953 34.1452 48.7263C34.5947 48.7573 35.0319 48.8871 35.4255 49.1063C35.8192 49.3256 36.1596 49.629 36.4226 49.995C36.6855 50.3609 36.8646 50.7803 36.9469 51.2233C37.0292 51.6663 37.0128 52.122 36.8988 52.558C36.7849 52.9939 36.5761 53.3994 36.2875 53.7454C35.9989 54.0915 35.6376 54.3696 35.2292 54.56C34.8208 54.7505 34.3754 54.8484 33.9248 54.847H21.6668C21.2595 54.8544 20.8547 54.7805 20.4762 54.6297C20.0977 54.4789 19.7531 54.2542 19.4624 53.9687C19.1717 53.6832 18.9408 53.3427 18.7832 52.967C18.6256 52.5913 18.5444 52.1879 18.5444 51.7805C18.5444 51.3731 18.6256 50.9698 18.7832 50.5941C18.9408 50.2184 19.1717 49.8778 19.4624 49.5923C19.7531 49.3069 20.0977 49.0822 20.4762 48.9314C20.8547 48.7805 21.2595 48.7067 21.6668 48.714Z" fill="white" stroke="black" stroke-linecap="round" stroke-linejoin="round"/>
<path d="M64.5699 57.182L63.1329 69.4C63.1164 69.5412 63.07 69.6773 62.9968 69.7991C62.9235 69.921 62.8251 70.0258 62.7082 70.1066C62.5912 70.1875 62.4583 70.2424 62.3184 70.2678C62.1786 70.2932 62.0349 70.2885 61.8969 70.254L60.0319 69.787C59.8995 69.7539 59.7616 69.7482 59.6269 69.7704C59.4922 69.7925 59.3634 69.8421 59.2485 69.9159C59.1337 69.9897 59.0351 70.0863 58.959 70.1996C58.8829 70.313 58.8308 70.4407 58.8059 70.575L55.4399 88.732L69.4169 88.6C71.2797 87.5615 73.0567 86.3761 74.7309 85.055L64.5699 57.182Z" fill="white"/>
<path d="M55.6259 19.0501L57.9169 23.6901C58.0075 23.8742 58.1417 24.0335 58.3077 24.154C58.4738 24.2746 58.6668 24.3529 58.8699 24.3821L63.9919 25.1271C64.2255 25.1611 64.4448 25.2599 64.6252 25.4121C64.8056 25.5643 64.9398 25.764 65.0126 25.9885C65.0854 26.213 65.094 26.4534 65.0373 26.6825C64.9806 26.9117 64.861 27.1204 64.6919 27.2851L60.9859 30.9001C60.8391 31.0433 60.7293 31.2201 60.666 31.4152C60.6028 31.6103 60.588 31.8179 60.6229 32.0201L61.4979 37.1201C61.5379 37.3529 61.512 37.5924 61.423 37.8113C61.3341 38.0302 61.1856 38.2198 60.9945 38.3587C60.8033 38.4976 60.5771 38.5803 60.3414 38.5973C60.1058 38.6143 59.87 38.565 59.6609 38.4551L55.0799 36.0461C54.8983 35.9505 54.6961 35.9006 54.4909 35.9006C54.2857 35.9006 54.0835 35.9505 53.9019 36.0461L49.3209 38.4541C49.1118 38.5638 48.8762 38.6128 48.6407 38.5956C48.4052 38.5785 48.1791 38.4958 47.9882 38.3569C47.7972 38.2181 47.6488 38.0285 47.5599 37.8098C47.471 37.591 47.445 37.3518 47.4849 37.1191L48.3589 32.0191C48.3943 31.8174 48.3801 31.6102 48.3176 31.4152C48.2551 31.2203 48.146 31.0435 47.9999 30.9001L44.2929 27.2871C44.1242 27.1222 44.0049 26.9135 43.9484 26.6845C43.892 26.4555 43.9006 26.2152 43.9734 25.9909C44.0462 25.7665 44.1802 25.5669 44.3603 25.4147C44.5405 25.2624 44.7595 25.1635 44.9929 25.1291L50.1149 24.3841C50.318 24.3547 50.5109 24.2764 50.6769 24.1558C50.843 24.0353 50.9771 23.8761 51.0679 23.6921L53.3579 19.0521C53.4625 18.8408 53.624 18.6629 53.8243 18.5385C54.0245 18.4141 54.2555 18.3481 54.4913 18.3479C54.727 18.3477 54.9581 18.4133 55.1586 18.5374C55.3591 18.6614 55.5209 18.839 55.6259 19.0501Z" fill="white"/>
<path d="M55.6259 19.0501L57.9169 23.6901C58.0075 23.8742 58.1417 24.0335 58.3077 24.154C58.4738 24.2746 58.6668 24.3529 58.8699 24.3821L63.9919 25.1271C64.2255 25.1611 64.4448 25.2599 64.6252 25.4121C64.8056 25.5643 64.9398 25.764 65.0126 25.9885C65.0854 26.213 65.094 26.4534 65.0373 26.6825C64.9806 26.9117 64.861 27.1204 64.6919 27.2851L60.9859 30.9001C60.8391 31.0433 60.7293 31.2201 60.666 31.4152C60.6028 31.6103 60.588 31.8179 60.6229 32.0201L61.4979 37.1201C61.5379 37.3529 61.512 37.5924 61.423 37.8113C61.3341 38.0302 61.1856 38.2198 60.9945 38.3587C60.8033 38.4976 60.5771 38.5803 60.3414 38.5973C60.1058 38.6143 59.87 38.565 59.6609 38.4551L55.0799 36.0461C54.8983 35.9505 54.6961 35.9006 54.4909 35.9006C54.2857 35.9006 54.0835 35.9505 53.9019 36.0461L49.3209 38.4541C49.1118 38.5638 48.8762 38.6128 48.6407 38.5956C48.4052 38.5785 48.1791 38.4958 47.9882 38.3569C47.7972 38.2181 47.6488 38.0285 47.5599 37.8098C47.471 37.5911 47.445 37.3518 47.4849 37.1191L48.3589 32.0191C48.3943 31.8174 48.3801 31.6102 48.3176 31.4152C48.2551 31.2203 48.146 31.0435 47.9999 30.9001L44.2929 27.2871C44.1242 27.1222 44.0049 26.9135 43.9484 26.6845C43.892 26.4555 43.9006 26.2152 43.9734 25.9909C44.0462 25.7665 44.1802 25.5669 44.3603 25.4147C44.5405 25.2624 44.7595 25.1635 44.9929 25.1291L50.1149 24.3841C50.318 24.3547 50.5109 24.2764 50.6769 24.1558C50.843 24.0353 50.9771 23.8761 51.0679 23.6921L53.3579 19.0521C53.4625 18.8408 53.624 18.6629 53.8243 18.5385C54.0245 18.4141 54.2555 18.3481 54.4913 18.3479C54.727 18.3477 54.9581 18.4133 55.1586 18.5374C55.3591 18.6614 55.5209 18.839 55.6259 19.0501V19.0501Z" stroke="black" stroke-linecap="round" stroke-linejoin="round"/>
<path d="M54.5049 11.732C53.9579 11.647 52.8799 9.37299 52.8799 7.99999C52.8904 7.57586 53.0663 7.17264 53.37 6.87638C53.6737 6.58013 54.0811 6.41431 54.5054 6.41431C54.9296 6.41431 55.3371 6.58013 55.6408 6.87638C55.9445 7.17264 56.1204 7.57586 56.1309 7.99999C56.1309 9.37199 55.0529 11.647 54.5049 11.732Z" fill="#35BCFF" stroke="black" stroke-linecap="round" stroke-linejoin="round"/>
<path d="M37.7671 21.186C36.745 21.1783 35.737 20.9465 34.8141 20.507C34.6293 20.4003 34.4673 20.2583 34.3374 20.089C34.2074 19.9197 34.1121 19.7264 34.0569 19.5203C34.0016 19.3141 33.9875 19.0991 34.0154 18.8875C34.0432 18.6759 34.1124 18.4719 34.2191 18.287C34.3258 18.1022 34.4679 17.9402 34.6372 17.8103C34.8065 17.6803 34.9998 17.585 35.2059 17.5298C35.4121 17.4745 35.6271 17.4604 35.8387 17.4883C36.0503 17.5161 36.2543 17.5853 36.4391 17.692C37.6311 18.38 39.0651 20.457 38.8571 20.969C38.526 21.1552 38.1443 21.2312 37.7671 21.186Z" fill="#35BCFF" stroke="black" stroke-linecap="round" stroke-linejoin="round"/>
<path d="M35.7999 42.6251C35.5143 42.6247 35.2338 42.5494 34.9864 42.4067C34.739 42.2641 34.5333 42.059 34.3899 41.8121C34.2829 41.6273 34.2134 41.4232 34.1854 41.2116C34.1574 40.9999 34.1714 40.7848 34.2267 40.5786C34.282 40.3724 34.3774 40.1791 34.5075 40.0098C34.6376 39.8405 34.7998 39.6986 34.9849 39.5921C35.9079 39.1532 36.9158 38.9218 37.9379 38.9141C38.7019 38.9141 38.9949 39.0891 39.0319 39.1361C39.2319 39.6421 37.8019 41.7191 36.6099 42.4061C36.3639 42.5491 36.0844 42.6247 35.7999 42.6251Z" fill="#35BCFF" stroke="black" stroke-linecap="round" stroke-linejoin="round"/>
<path d="M73.7282 42.325C73.4435 42.3247 73.1638 42.2495 72.9172 42.107C71.7272 41.419 70.2922 39.342 70.5002 38.831C70.8313 38.6449 71.2131 38.5689 71.5902 38.614C72.6123 38.6217 73.6202 38.8531 74.5432 39.292C74.8536 39.4708 75.0961 39.7471 75.2332 40.078C75.3703 40.4089 75.3942 40.7758 75.3013 41.1217C75.2084 41.4676 75.0037 41.7731 74.7193 41.9907C74.4348 42.2083 74.0864 42.3258 73.7282 42.325Z" fill="#35BCFF" stroke="black" stroke-linecap="round" stroke-linejoin="round"/>
<path d="M71.4171 20.886C70.6521 20.886 70.3601 20.71 70.3231 20.663C70.1231 20.163 71.5531 18.081 72.7451 17.393C72.93 17.284 73.1347 17.2127 73.3473 17.1833C73.56 17.1539 73.7763 17.1669 73.9839 17.2216C74.1915 17.2762 74.3862 17.3715 74.5567 17.5018C74.7273 17.6322 74.8703 17.795 74.9776 17.9809C75.0849 18.1669 75.1542 18.3722 75.1817 18.5851C75.2092 18.798 75.1942 19.0142 75.1376 19.2213C75.081 19.4284 74.984 19.6222 74.852 19.7915C74.7201 19.9609 74.556 20.1024 74.3691 20.208C73.4465 20.6471 72.4388 20.8785 71.4171 20.886Z" fill="#35BCFF" stroke="black" stroke-linecap="round" stroke-linejoin="round"/>
<path d="M27.062 84.578L34.106 74.332C34.3817 73.931 34.7508 73.6032 35.1815 73.3767C35.6122 73.1503 36.0914 73.0319 36.578 73.032H40.613C41.2916 73.0321 41.9502 72.8022 42.4813 72.3797C43.0124 71.9573 43.3845 71.3672 43.537 70.706L48.325 49.955C48.4135 49.5708 48.5769 49.2079 48.8058 48.8869C49.0347 48.5659 49.3246 48.2932 49.6589 48.0844C49.9932 47.8755 50.3655 47.7346 50.7543 47.6696C51.1431 47.6047 51.541 47.6171 51.925 47.706L60.377 49.656C60.8741 49.7708 61.3337 50.0105 61.7124 50.3524C62.091 50.6943 62.3762 51.1271 62.541 51.61L74.2 83.6" stroke="black" stroke-linecap="round" stroke-linejoin="round"/>
<path d="M72.646 82.62C72.0961 82.1151 71.3953 81.8052 70.6518 81.7381C69.9083 81.6711 69.1633 81.8506 68.532 82.249C68.545 82.117 68.552 81.984 68.552 81.849C68.5354 80.7969 68.1057 79.7934 67.3558 79.0552C66.6059 78.3171 65.5958 77.9033 64.5435 77.9033C63.4912 77.9033 62.4811 78.3171 61.7312 79.0552C60.9812 79.7934 60.5516 80.7969 60.535 81.849C60.535 81.985 60.542 82.118 60.555 82.249C60.0122 81.9085 59.3848 81.7269 58.744 81.725C58.5163 81.7256 58.2892 81.7484 58.066 81.793C57.4558 80.84 56.5992 80.0698 55.5868 79.5642C54.5744 79.0586 53.4441 78.8365 52.3156 78.9212C51.1872 79.006 50.1028 79.3946 49.1773 80.0458C48.2518 80.697 47.5198 81.5865 47.059 82.62C46.5091 82.1151 45.8083 81.8052 45.0648 81.7381C44.3213 81.6711 43.5763 81.8506 42.945 82.249C42.958 82.117 42.965 81.984 42.965 81.849C42.9484 80.7969 42.5187 79.7934 41.7688 79.0552C41.0189 78.3171 40.0088 77.9033 38.9565 77.9033C37.9042 77.9033 36.8941 78.3171 36.1442 79.0552C35.3942 79.7934 34.9646 80.7969 34.948 81.849C34.948 81.985 34.955 82.118 34.968 82.249C34.3367 81.8509 33.592 81.6715 32.8487 81.7385C32.1054 81.8056 31.4048 82.1153 30.855 82.62C30.4383 81.6861 29.7996 80.8683 28.9945 80.2378C28.1894 79.6073 27.2423 79.1832 26.2358 79.0026C25.2293 78.8219 24.1938 78.8902 23.2197 79.2014C22.2456 79.5126 21.3624 80.0573 20.647 80.788C24.5013 84.9562 29.199 88.2557 34.4277 90.467C39.6564 92.6784 45.296 93.7509 50.9714 93.6132C56.6468 93.4754 62.2278 92.1306 67.343 89.6682C72.4583 87.2058 76.9904 83.6822 80.638 79.332C79.1386 78.747 77.4715 78.7623 75.9832 79.3746C74.4948 79.987 73.2996 81.1493 72.646 82.62Z" fill="white"/>
<path d="M79.3628 78.981C79.0353 78.9295 78.7043 78.9037 78.3728 78.904C77.1611 78.9044 75.9754 79.2556 74.9589 79.9152C73.9425 80.5748 73.1387 81.5145 72.6448 82.621C72.0951 82.1162 71.3945 81.8062 70.6512 81.739C69.9079 81.6718 69.1631 81.851 68.5318 82.249C68.5448 82.117 68.5518 81.984 68.5518 81.849C68.5352 80.7969 68.1055 79.7934 67.3556 79.0552C66.6057 78.3171 65.5956 77.9033 64.5433 77.9033C63.491 77.9033 62.4809 78.3171 61.7309 79.0552C60.981 79.7934 60.5514 80.7969 60.5348 81.849C60.5348 81.985 60.5418 82.118 60.5548 82.249C60.012 81.9085 59.3846 81.7269 58.7438 81.725C58.5161 81.7256 58.289 81.7484 58.0658 81.793C57.4556 80.84 56.5988 80.0699 55.5864 79.5644C54.5739 79.0589 53.4436 78.8368 52.3151 78.9217C51.1867 79.0066 50.1023 79.3953 49.1769 80.0466C48.2514 80.6978 47.5195 81.5874 47.0588 82.621C46.509 82.1159 45.8083 81.8058 45.0647 81.7386C44.3212 81.6714 43.5762 81.8507 42.9448 82.249C42.9578 82.117 42.9648 81.984 42.9648 81.849C42.9482 80.7969 42.5185 79.7934 41.7686 79.0552C41.0187 78.3171 40.0086 77.9033 38.9563 77.9033C37.904 77.9033 36.8939 78.3171 36.144 79.0552C35.394 79.7934 34.9644 80.7969 34.9478 81.849C34.9478 81.985 34.9548 82.118 34.9678 82.249C34.3363 81.8507 33.5913 81.6714 32.8478 81.7386C32.1043 81.8058 31.4035 82.1159 30.8538 82.621C30.4699 81.761 29.8974 80.9984 29.1786 80.3898C28.4599 79.7812 27.6133 79.3423 26.7018 79.1055C25.7902 78.8687 24.8371 78.8402 23.913 79.0221C22.9889 79.2039 22.1176 79.5915 21.3638 80.156" stroke="black" stroke-linecap="round" stroke-linejoin="round"/>
</svg>
